<svg width="128" height="128" viewBox="0 0 128 128" fill="none" xmlns="http://www.w3.org/2000/svg">
<path d="M128 64C128 99.3462 99.3462 128 64 128C28.6538 128 0 99.3462 0 64C0 28.6538 28.6538 0 64 0C99.3462 0 128 28.6538 128 64Z" fill="#667EEA"/>
<path d="M81.5713 55.3006V50.3857H104.727V55.3006H96.0955V78.5807H90.2032V55.3006H81.5713Z" fill="white"/>
<path d="M78.3698 60.2565H72.3398C72.2297 59.4763 72.0048 58.7834 71.6652 58.1776C71.3256 57.5627 70.8897 57.0396 70.3573 56.6082C69.825 56.1768 69.2101 55.8464 68.5126 55.617C67.8242 55.3875 67.0762 55.2728 66.2685 55.2728C64.8092 55.2728 63.5381 55.6353 62.455 56.3604C61.372 57.0763 60.5322 58.1226 59.9357 59.4993C59.3391 60.8668 59.0408 62.528 59.0408 64.483C59.0408 66.4929 59.3391 68.1817 59.9357 69.5492C60.5414 70.9168 61.3858 71.9493 62.4688 72.6468C63.5518 73.3444 64.8046 73.6931 66.2272 73.6931C67.0257 73.6931 67.7645 73.5876 68.4437 73.3765C69.1321 73.1654 69.7424 72.8579 70.2747 72.4541C70.8071 72.0411 71.2476 71.5409 71.5964 70.9535C71.9543 70.3661 72.2021 69.6961 72.3398 68.9435L78.3698 68.971C78.2137 70.2651 77.8237 71.5133 77.1996 72.7157C76.5846 73.9088 75.754 74.978 74.7077 75.9234C73.6706 76.8595 72.4316 77.603 70.9906 78.1537C69.5588 78.6952 67.9389 78.9659 66.1309 78.9659C63.6161 78.9659 61.3674 78.3969 59.385 77.2588C57.4117 76.1207 55.8514 74.4733 54.7042 72.3164C53.5661 70.1596 52.9971 67.5484 52.9971 64.483C52.9971 61.4083 53.5753 58.7926 54.7317 56.6357C55.8882 54.4789 57.4576 52.836 59.4401 51.7071C61.4225 50.569 63.6528 50 66.1309 50C67.7645 50 69.2789 50.2295 70.674 50.6884C72.0782 51.1473 73.3219 51.8173 74.4049 52.6983C75.4879 53.5703 76.369 54.6395 77.0481 55.9061C77.7365 57.1726 78.177 58.6228 78.3698 60.2565Z" fill="white"/>
<path d="M49.0766 64.483C49.0766 67.5576 48.4938 70.1733 47.3282 72.3302C46.1718 74.487 44.5931 76.1345 42.5923 77.2726C40.6007 78.4015 38.3613 78.9659 35.874 78.9659C33.3684 78.9659 31.1198 78.3969 29.1281 77.2588C27.1365 76.1207 25.5625 74.4733 24.406 72.3164C23.2496 70.1596 22.6714 67.5484 22.6714 64.483C22.6714 61.4083 23.2496 58.7926 24.406 56.6357C25.5625 54.4789 27.1365 52.836 29.1281 51.7071C31.1198 50.569 33.3684 50 35.874 50C38.3613 50 40.6007 50.569 42.5923 51.7071C44.5931 52.836 46.1718 54.4789 47.3282 56.6357C48.4938 58.7926 49.0766 61.4083 49.0766 64.483ZM43.0329 64.483C43.0329 62.4913 42.7346 60.8117 42.138 59.4442C41.5506 58.0767 40.72 57.0396 39.6462 56.3329C38.5724 55.6261 37.315 55.2728 35.874 55.2728C34.4331 55.2728 33.1757 55.6261 32.1018 56.3329C31.028 57.0396 30.1928 58.0767 29.5962 59.4442C29.0088 60.8117 28.7151 62.4913 28.7151 64.483C28.7151 66.4746 29.0088 68.1542 29.5962 69.5217C30.1928 70.8892 31.028 71.9263 32.1018 72.6331C33.1757 73.3398 34.4331 73.6931 35.874 73.6931C37.315 73.6931 38.5724 73.3398 39.6462 72.6331C40.72 71.9263 41.5506 70.8892 42.138 69.5217C42.7346 68.1542 43.0329 66.4746 43.0329 64.483Z" fill="white"/>
</svg>
